<svg id="Layer_1" data-name="Layer 1" xmlns="http://www.w3.org/2000/svg" viewBox="0 0 190 100"><path d="M5.1,33H9.4l6.7,22,6.7-22h4.3L17.9,61H14.2Z"/><path d="M32,33h4V61H32Zm2,0H50v4H34Zm0,13H48v4H34Zm0,11H50v4H34Z"/><path d="M55,33h4V61H55Zm2,13h9.9a3.6,3.6,0,0,0,2-.6,3.4,3.4,0,0,0,1.4-1.5,6,6,0,0,0,0-4.8A4,4,0,0,0,66.9,37H57V33h9.3a8.2,8.2,0,0,1,4.2,1,6.9,6.9,0,0,1,2.8,2.8,8.2,8.2,0,0,1,1,4.2,8.2,8.2,0,0,1-1,4.2A6.9,6.9,0,0,1,70.5,48a8.2,8.2,0,0,1-4.2,1H57Zm7.9,2.1,4-.9L76.1,61H71.4Z"/><path d="M78,33H98v4H78Zm8,2h4V61H86Z"/><path d="M106,61h-4V33h4Z"/><path d="M116.6,60.1a8.7,8.7,0,0,1-3.4-3.7,12,12,0,0,1-1.2-5.5V43.1a12.3,12.3,0,0,1,1.2-5.5,8.7,8.7,0,0,1,3.4-3.7,10.7,10.7,0,0,1,5.1-1.3,9.6,9.6,0,0,1,4.4,1.1,9.1,9.1,0,0,1,3.3,2.9,10.9,10.9,0,0,1,1.9,4.4h-4a9,9,0,0,0-1.2-2.4,7,7,0,0,0-2-1.5,5.3,5.3,0,0,0-2.4-.6,5.1,5.1,0,0,0-5,3.2,7.4,7.4,0,0,0-.7,3.4v7.8a8.1,8.1,0,0,0,.7,3.5,5.6,5.6,0,0,0,2,2.3,5.8,5.8,0,0,0,3,.8,6.9,6.9,0,0,0,2.4-.5,7.4,7.4,0,0,0,2-1.6,7.7,7.7,0,0,0,1.2-2.4h4a10.9,10.9,0,0,1-1.9,4.4,9.1,9.1,0,0,1-3.3,2.9,9.6,9.6,0,0,1-4.4,1.1A10.7,10.7,0,0,1,116.6,60.1Z"/><path d="M143.9,33h3.3l10.4,28h-4.3l-7.7-22.6L137.8,61h-4.2ZM138,52h15v4H138Z"/><path d="M162,33h4V61h-4Zm2,13h16v4H164Zm14-13h4V61h-4Z"/></svg>