<svg id="레이어_1" data-name="레이어 1" xmlns="http://www.w3.org/2000/svg" viewBox="0 0 540 282"><defs><style>.cls-1{fill:#231916;}</style></defs><path class="cls-1" d="M35.8,97.56H47.07l17.72,57.89L82.52,97.56H93.79L69.72,171.39H59.87Z"/><path class="cls-1" d="M105,97.56h10.36v73.83H105Zm5,0h42.4v9.85H110Zm0,32.24H146.8v9.85H110Zm0,31.74h42.4v9.85H110Z"/><path class="cls-1" d="M167.12,97.51h10.36v73.88H167.12Zm4.52,32.8h25.18a9.65,9.65,0,0,0,5.23-1.42,9.3,9.3,0,0,0,3.53-4,15.1,15.1,0,0,0,0-12,9.37,9.37,0,0,0-3.5-4,9.66,9.66,0,0,0-5.26-1.42H171.64V97.51h24.78a23.2,23.2,0,0,1,11.25,2.64,18.49,18.49,0,0,1,7.51,7.49,24.72,24.72,0,0,1,0,22.39,18.71,18.71,0,0,1-7.55,7.49,23,23,0,0,1-11.19,2.64H171.64Zm20.11,7.57,10.3-2.34,18.89,35.85H208.66Z"/><path class="cls-1" d="M224.75,97.56h52.11v9.85H224.75Zm20.87,6H256v67.79H245.62Z"/><path class="cls-1" d="M297.37,171.39H287V97.56h10.36Z"/><path class="cls-1" d="M326.34,168.75a23,23,0,0,1-9-9.65,31.32,31.32,0,0,1-3.2-14.47V124.37a31.32,31.32,0,0,1,3.2-14.47,23.23,23.23,0,0,1,9-9.68,26.11,26.11,0,0,1,13.48-3.43,25.33,25.33,0,0,1,11.68,2.72,24.62,24.62,0,0,1,8.92,7.7,29,29,0,0,1,4.85,11.52H354.65a16.51,16.51,0,0,0-3.22-6.17,16,16,0,0,0-5.31-4.19,14.91,14.91,0,0,0-14.22.71,14.51,14.51,0,0,0-5.28,6.12,21.12,21.12,0,0,0-1.88,9.17v20.26a21.14,21.14,0,0,0,1.88,9.14,14.28,14.28,0,0,0,5.28,6.12,14.47,14.47,0,0,0,7.92,2.16,15.25,15.25,0,0,0,6.33-1.37,15.05,15.05,0,0,0,5.28-4.06,16.19,16.19,0,0,0,3.22-6.4h10.62a28.74,28.74,0,0,1-4.88,11.52,24.76,24.76,0,0,1-8.94,7.7,25.24,25.24,0,0,1-11.63,2.71A26.19,26.19,0,0,1,326.34,168.75Z"/><path class="cls-1" d="M397.05,97.56h8.84l27.22,73.83H421.94l-20.47-59.56L381,171.39H369.84Zm-14.67,47.78h38.85v9.85H382.38Z"/><path class="cls-1" d="M444.28,97.56h10.36v73.83H444.28Zm6.45,32.55h41V140h-41Zm35.5-32.55h10.36v73.83H486.23Z"/></svg>