<svg xmlns="http://www.w3.org/2000/svg" viewBox="0 0 960.1 108.7"><g id="Layer_2" data-name="Layer 2"><g id="Layer_1-2" data-name="Layer 1"><polygon points="0 2.4 8.8 2.4 60.4 108.7 58.9 108.7 0 2.4"/><polygon points="15.8 2.4 24.6 2.4 76.2 108.7 74.7 108.7 15.8 2.4"/><polygon points="31.5 2.4 40.4 2.4 91.9 108.7 90.4 108.7 31.5 2.4"/><polygon points="47.3 2.4 56.1 2.4 107.7 108.7 106.2 108.7 47.3 2.4"/><polygon points="63 2.4 71.9 2.4 123.4 108.7 122 108.7 63 2.4"/><polygon points="166.6 0 116.5 94.9 123.4 108.7 175.2 0 166.6 0"/><polygon points="159.9 0 151.2 0 108.7 80.6 115.3 93.5 159.9 0"/><polygon points="144.3 0 135.7 0 101 65.7 107.3 77.9 144.3 0"/><polygon points="127.7 0 119 0 92.8 49.6 98.6 61 127.7 0"/><polygon points="112.1 0 103.5 0 85.2 34.7 90.6 45.3 112.1 0"/><path d="M229.6,22.6l-1.4-3H233l.6,1.3L262,85.6l28.3-64.7.5-1.3h4.8l-1.4,3L262,96.4Z"/><path d="M389.6,19.6h2.2v4.3H344.2V54.2H379v4.3H344.2V88.8h47.6v4.4h-52V19.6h49.8Z"/><path d="M460.3,58.5H445.9V93.2h-4.3V58.5h0V19.7h32.2c12.1,0,21.8,8.8,21.8,19.6S486,58.5,474,58.5h-7.6l28.7,31,3.4,3.7h-6l-.6-.7Zm2.1-4.3H474c9.4,0,17.3-6.6,17.3-15s-7.9-15.3-17.4-15.3h-28V54.3h16.5Z"/><path d="M567.2,19.6h25.9v4.3H567.2V93.2h-4.3V23.9H536.8V19.6h30.4Z"/><path d="M638.6,21.7V19.6H643V93.2h-4.4V21.7Z"/><path d="M751.7,75.3l3.7,2.4c-5.1,7.8-16.6,15.5-30,15.5-19.9,0-34.9-16.4-34.9-36.8s15-36.8,34.9-36.8c13.3,0,25.1,7.5,29.8,15.6l-3.7,2.2c-4.2-7-14.5-13.5-26.1-13.5-17.5,0-30.6,14.6-30.6,32.5s13.1,32.4,30.6,32.4C737.1,88.8,747.3,82.2,751.7,75.3Z"/><path d="M811.6,54.2l16.5-37.9,16.6,37.9h.7v1.7l15,34.2,1.4,3.1H857l-.5-1.3L841.9,58.5H814.4L799.8,91.9l-.6,1.3h-4.7l1.4-3.1,14.9-34.2V54.2Zm28.4,0L828.1,27.1,816.3,54.2Z"/><path d="M960.1,58.5V93.2h-4.3V58.5H910.4V93.2H906V19.6h4.4V54.2h45.4V19.6h4.3V58.5Z"/></g></g></svg>