<svg xmlns="http://www.w3.org/2000/svg" viewBox="0 0 453.5 372.9"><g id="Layer_2" data-name="Layer 2"><g id="Layer_1-2" data-name="Layer 1"><polygon points="0 6.1 22.9 6.1 156.3 281.4 152.5 281.4 0 6.1"/><polygon points="40.8 6.1 63.7 6.1 197.1 281.4 193.3 281.4 40.8 6.1"/><polygon points="81.6 6.1 104.5 6.1 237.9 281.4 234.1 281.4 81.6 6.1"/><polygon points="122.4 6.1 145.3 6.1 278.7 281.4 274.9 281.4 122.4 6.1"/><polygon points="163.2 6.1 186.1 6.1 319.5 281.4 315.7 281.4 163.2 6.1"/><polygon points="431.1 0 301.5 245.6 319.5 281.4 453.5 0 431.1 0"/><polygon points="413.8 0 391.5 0 281.3 208.6 298.6 242.2 413.8 0"/><polygon points="373.7 0 351.3 0 261.5 170 277.7 201.6 373.7 0"/><polygon points="330.5 0 308.1 0 240.2 128.5 255.3 157.9 330.5 0"/><polygon points="290.3 0 267.9 0 220.5 89.9 234.5 117.3 290.3 0"/><path d="M35,334.2l-.7-1.6h2.5l.3.7L52,367.2l14.8-33.9.3-.7h2.5l-.8,1.6L52,372.9Z"/><path d="M118.8,332.6H120v2.3H95v15.8h18.3V353H95v15.9h25v2.3H92.8V332.6h26Z"/><path d="M155.9,353h-7.6v18.2h-2.2V353h0V332.6H163c6.4,0,11.4,4.6,11.4,10.3s-5,10.1-11.3,10.1h-4l15,16.2,1.8,2h-3.1l-.4-.4Zm1.1-2.2h6.1c4.9,0,9-3.4,9-7.8s-4.1-8-9.1-8H148.3v15.9H157Z"/><path d="M211.9,332.6h13.5v2.3H211.9v36.3h-2.3V334.9H196v-2.3h15.9Z"/><path d="M249.3,333.7v-1.1h2.3v38.6h-2.3V333.7Z"/><path d="M308.6,361.8l1.9,1.2a19.5,19.5,0,0,1-15.7,8.2c-10.4,0-18.3-8.6-18.3-19.3s7.9-19.3,18.3-19.3c7,0,13.1,4,15.6,8.2l-1.9,1.1c-2.3-3.6-7.6-7-13.7-7-9.2,0-16.1,7.6-16.1,17s6.9,17,16.1,17A17.2,17.2,0,0,0,308.6,361.8Z"/><path d="M339.9,350.7l8.7-19.8,8.7,19.8h.4v1l7.8,17.9.7,1.6h-2.5l-.2-.7L355.8,353H341.4l-7.7,17.5-.2.7H331l.7-1.6,7.8-17.9v-1Zm14.9,0-6.2-14.1-6.2,14.1Z"/><path d="M417.8,353v18.2h-2.3V353H391.7v18.2h-2.3V332.6h2.3v18.1h23.8V332.6h2.3V353Z"/></g></g></svg>