<svg xmlns="http://www.w3.org/2000/svg" viewBox="0 0 453.5 281.4"><g id="Layer_2" data-name="Layer 2"><g id="Layer_1-2" data-name="Layer 1"><polygon points="0 6.1 22.9 6.1 156.3 281.4 152.5 281.4 0 6.1"/><polygon points="40.8 6.1 63.7 6.1 197.1 281.4 193.3 281.4 40.8 6.1"/><polygon points="81.6 6.1 104.5 6.1 237.9 281.4 234.1 281.4 81.6 6.1"/><polygon points="122.4 6.1 145.3 6.1 278.7 281.4 274.9 281.4 122.4 6.1"/><polygon points="163.2 6.1 186.1 6.1 319.5 281.4 315.7 281.4 163.2 6.1"/><polygon points="431.1 0 301.5 245.6 319.5 281.4 453.5 0 431.1 0"/><polygon points="413.8 0 391.5 0 281.3 208.6 298.6 242.2 413.8 0"/><polygon points="373.7 0 351.3 0 261.5 170 277.7 201.6 373.7 0"/><polygon points="330.5 0 308.1 0 240.2 128.5 255.3 157.9 330.5 0"/><polygon points="290.3 0 267.9 0 220.5 89.9 234.5 117.3 290.3 0"/></g></g></svg>